<svg xmlns="http://www.w3.org/2000/svg" xml:space="preserve" width="1062.488" height="300"><path d="M516.934 252.205h-796.866v225h796.866z" style="fill:#6b2230;fill-opacity:1;fill-rule:nonzero;stroke:none;stroke-width:.330726" transform="matrix(1.33333 0 0 -1.33333 373.243 636.273)"/><path d="M505.69 263.456h-774.376v202.5H505.69z" style="fill:#fff;fill-opacity:1;fill-rule:nonzero;stroke:none;stroke-width:.330726" transform="matrix(1.33333 0 0 -1.33333 373.243 636.273)"/><path d="M498.655 270.484h-760.307v188.441h760.307z" style="fill:#6b2230;fill-opacity:1;fill-rule:nonzero;stroke:none;stroke-width:.330726" transform="matrix(1.33333 0 0 -1.33333 373.243 636.273)"/><path d="M-228.543 360.597v7.078h7.076v56.6h-7.076v7.078h27.058v-7.078h-5.832l.097-26.865 25.163 26.865h-6.001v7.078h20.373v-7.078h-4.757l-22.153-23.713 27.172-32.887h5.38v-7.078h-26.971v7.078h4.756l-23.059 27.758v-27.758h5.832v-7.078zm89.415-.903-15.91 64.581h-4.112v7.078h25.244v-7.078h-7.07l10.01-40.444 13.676 46.946h8.248l13.07-48.09 11.948 41.588h-7.094v7.078h18.93v-7.078h-4.183l-18.477-64.58h-8.432l-13.39 48.9-14.248-48.9zm90.318 28.779h22.537l-11.298 28.443zm-2.912-7.365-5.305-13.434h7.099v-7.078H-69.1v7.078h4.183l25.522 64.59h11.052l25.496-64.59h4.164v-7.078h-26.434v7.078h7.099l-5.332 13.434zm107.534-21.226-35.15 50.21v-42.418h7.072v-7.078H3.88v7.078h7.072v56.6H3.88v7.078h17.162L56.23 380.82v43.454h-7.08v7.078h23.86v-7.078h-7.075v-64.392zm83.194 2.2c-9.716-2.166-17.72-3.251-23.997-3.251-11.156 0-20 3.35-26.531 10.04q-9.801 10.039-9.8 27.2c0 11.757 3.222 20.875 9.68 27.344 6.453 6.47 15.561 9.71 27.319 9.71a99 99 0 0 0 12.24-.744 87 87 0 0 0 11.714-2.272v-15.011h-8.03l-.575 7.074q-3.917 1.966-7.713 2.92c-2.53.635-5.04.956-7.52.956q-10.024 0-15.733-8.057c-3.803-5.367-5.702-12.776-5.702-22.208q.001-13.86 6.347-21.821c4.233-5.305 10.037-7.957 17.42-7.957 2.036 0 4.074.36 6.111 1.094v18.412h-7.078v7.074h27.156v-7.074h-5.308zm30.857-2.388-15.911 64.581h-4.114v7.078h25.244v-7.078h-7.068l10.015-40.444 13.672 46.946h8.252l13.067-48.09 11.949 41.588h-7.098v7.078h18.931v-7.078h-4.184l-18.474-64.58h-8.43l-13.398 48.9-14.244-48.9zm107.84 6.214q9.015 0 14.453 8.245c3.621 5.496 5.437 12.769 5.437 21.821 0 9.082-1.816 16.37-5.437 21.851q-5.438 8.221-14.453 8.222c-5.973 0-10.778-2.742-14.403-8.222s-5.434-12.77-5.434-21.851q-.001-13.625 5.434-21.845c5.435-8.22 8.43-8.221 14.403-8.221m0-7.078q-16.49.001-26.005 9.945c-6.343 6.631-9.515 15.693-9.515 27.199q0 17.259 9.515 27.206 9.515 9.942 26.005 9.944c10.997 0 19.678-3.317 26.032-9.944q9.543-9.947 9.541-27.206c-.002-17.259-3.178-20.568-9.541-27.199-6.354-6.628-15.035-9.945-26.032-9.945m77.572 7.078q9.015 0 14.453 8.245c3.621 5.496 5.437 12.769 5.437 21.821 0 9.082-1.816 16.37-5.437 21.851q-5.439 8.221-14.453 8.222-8.958-.001-14.403-8.222c-3.625-5.48-5.44-12.77-5.44-21.851 0-9.085 1.815-16.364 5.44-21.845q5.445-8.22 14.403-8.221m0-7.078q-16.49.001-26.005 9.945c-6.343 6.631-9.515 15.693-9.515 27.199q0 17.259 9.515 27.206 9.515 9.942 26.005 9.944c10.997 0 19.672-3.317 26.035-9.944q9.53-9.947 9.531-27.206c.001-17.259-3.178-20.568-9.531-27.199-6.363-6.628-15.038-9.945-26.035-9.945m93.07 1.052-35.153 50.21v-42.418h7.074v-7.078h-23.849v7.078h7.075v56.6h-7.075v7.078h17.155l35.186-50.532v43.454h-7.074v7.078h23.862v-7.078h-7.078v-64.392zm-660.979-33.903v-24.064c0-6.439 2.129-8.622 4.9-8.622 3.033 0 4.948 2.342 4.948 8.622v24.064h4.102v-23.43c0-9.31-3.837-12.882-9.16-12.882-5.374 0-8.888 3.516-8.888 12.406v23.905zm73.539-35.879v35.88h3.888l6.6-16.82c1.492-3.84 3.354-8.626 4.578-12.516h.107c-.319 5.643-.478 10.276-.478 16.5v12.836h3.673V290.1h-3.886l-6.815 17.25c-1.436 3.615-2.98 7.72-4.26 12.187h-.104c.317-4.792.426-9.372.426-17.032v-12.406zm82.118 35.881V290.1h-4.102v35.88zm65.6-35.882L.426 325.98H4.79l3.514-16.82c.85-4.052 1.915-9.215 2.554-13.792h.16c.533 4.633 1.545 9.637 2.396 13.894l3.41 16.718h4.364l-8.36-35.88zm82.907 17.032h-8.989v-13.467h10.216v-3.566h-14.32v35.88h13.682v-3.568h-9.578v-11.82h8.99zm63.112 1.757h1.7c3.939 0 6.552 2.874 6.552 7.187 0 4.154-1.707 6.713-6.125 6.76-.794 0-1.594-.046-2.127-.209zm-4.101 16.556c1.756.483 3.883.695 5.91.695 3.565 0 6.228-.748 8.09-2.557 1.756-1.809 2.503-4.207 2.503-7.024 0-4.581-2.13-7.56-5.748-9.208v-.112c2.663-.797 4.045-3.35 4.845-8.037.794-4.951 1.538-7.984 2.021-9.102h-4.154c-.536 1.062-1.22 4.468-1.918 8.89-.794 4.898-2.338 6.757-5.85 6.757h-1.598V290.1h-4.101zm74.228-30.612c1.227-.797 3.357-1.432 5.166-1.432 3.728 0 5.963 2.447 5.963 6.069 0 3.3-1.918 5.321-4.742 7.451-2.815 1.968-6.757 5.322-6.757 9.958 0 5.43 3.78 9.416 9.475 9.416 2.236 0 4.207-.691 5.06-1.33l-1.015-3.512c-.903.639-2.398 1.224-4.256 1.224-3.516 0-5.17-2.659-5.17-5.106 0-3.569 1.869-4.951 5.279-7.405 4.31-3.033 6.227-6.33 6.227-10.329 0-6.171-4.365-10.057-10.064-10.057-2.447 0-5.057.797-6.072 1.544zm77.377 31.147V290.1h-4.1v35.88zm63.949-3.671h-6.545v3.67h17.198v-3.67h-6.552V290.1h-4.1zm74.181-32.209v15.17l-7.88 20.71h4.309l3.194-9c.907-2.5 1.869-5.324 2.663-8.092h.109c.744 2.768 1.647 5.483 2.61 8.255l3.029 8.837h4.31l-8.25-20.555V290.1z" style="fill:#fff;fill-opacity:1;fill-rule:nonzero;stroke:none;stroke-width:.330726" transform="matrix(1.33333 0 0 -1.33333 373.243 636.273)"/></svg>