<svg xmlns="http://www.w3.org/2000/svg" id="_레이어_2" data-name="레이어 2" viewBox="0 0 639.15 133.98"><defs><style>.cls-1{fill:#787b7d}</style></defs><g id="Layer_1" data-name="Layer 1"><path d="M156.2 113.4h3.07v8.96h.06l6.31-8.96h3.09l-6.78 9.24 7.52 11.02h-3.64l-6.5-9.83h-.06v9.83h-3.07zm20.61 10.12c0-3.58.48-8.7 4.24-8.7s4.27 5.12 4.27 8.7-.51 8.69-4.27 8.69-4.24-5.11-4.24-8.69m4.24 10.46c5.4 0 7.54-4.38 7.54-10.46s-2.14-10.45-7.54-10.45-7.49 4.37-7.49 10.45 2.09 10.46 7.49 10.46m18.55-18.65h1.14c2.91 0 4.4.79 4.4 3.53 0 3.19-2.45 3.83-4.4 3.83h-1.14v-7.37Zm-3.08 18.32h3.08v-9.01h1.14c2.99 0 3.55 1.88 3.95 3.6l1.09 5.41h3.1l-1.04-5.27c-.46-2.37-.86-4.39-3.76-4.9v-.06c1.65-.33 4.13-1.46 4.13-4.72 0-4.85-4.23-5.31-7.48-5.31h-4.22v20.26Zm19.96-20.25h10.14v1.94h-7.07v6.81h6.69v1.94h-6.69v7.46h7.3v2.11h-10.36V113.4Zm22.61 2.9h.06l2.71 9.39h-5.5zm-7.78 17.35H234l1.76-6.02h6.65l1.75 6.02h3.19l-6.45-20.26h-3.18zm44.69-.96c-1.04.64-2.65 1.29-5.14 1.29-5.94 0-8.09-5.14-8.09-10.84 0-4.9 1.7-10.07 7.59-10.07 4.29 0 6.41 2.51 6.41 5.81h-3.56c0-1.65-.55-4.06-3.1-4.06-3.51 0-4.07 4.97-4.07 7.8 0 4.54 1.02 9.24 5.33 9.24 2.33 0 3.81-1.3 4.63-1.92v2.76Zm10.2-17.36h1.14c2.9 0 4.42.79 4.42 3.53 0 3.19-2.46 3.83-4.42 3.83h-1.14v-7.37Zm-3.08 18.32h3.08v-9.01h1.14c2.98 0 3.54 1.88 3.97 3.6l1.07 5.41h3.1l-1.04-5.27c-.48-2.37-.86-4.39-3.75-4.9v-.06c1.64-.33 4.12-1.46 4.12-4.72 0-4.85-4.24-5.31-7.48-5.31h-4.21zm19.96-20.25h10.14v1.94h-7.08v6.81h6.69v1.94h-6.69v7.46h7.31v2.11h-10.37zm20.13 1.93h1.25c3.21 0 5.67.85 5.67 7.99 0 5.43-.92 8.39-5.67 8.39h-1.25zm-3.07 18.32h4.32c5.31 0 8.73-1.9 8.73-10.33s-3.46-9.92-8.73-9.92h-4.32v20.26Zm20.58-20.25h3.07v20.26h-3.07zm13.97 1.93h-4.66v-1.94h12.39v1.94h-4.65v18.32h-3.08zm35.93 16.71c-1.28.82-3.07 1.94-6 1.94-5.91 0-8.11-4.94-8.11-10.96 0-5.37 1.65-9.95 7.47-9.95 5.25 0 6.44 3.06 6.64 5.73h-3.58c0-2.1-.63-3.98-3.06-3.98-3.9 0-4.21 4.97-4.21 8.2 0 5.1 1.06 9.19 5.19 9.19 1.09 0 2.04-.43 2.59-1.03v-7.19h-3.81v-1.94h6.88zm21.19-5.59c0 3.71-.58 7.53-6.53 7.53s-6.53-3.82-6.53-7.53v-13.06h3.07v13.06c0 3.24.23 5.76 3.46 5.76s3.47-2.52 3.47-5.76v-13.06h3.07v13.06Zm12.84-10.15h.05l2.7 9.39h-5.48zm-7.79 17.35h2.71l1.75-6.02h6.64l1.76 6.02h3.17l-6.44-20.26h-3.18zm24.94-18.32h1.13c2.9 0 4.4.79 4.4 3.53 0 3.19-2.45 3.83-4.4 3.83h-1.13v-7.37Zm-3.08 18.32h3.08v-9.01h1.13c2.98 0 3.56 1.88 3.96 3.6l1.09 5.41h3.08l-1.03-5.27c-.47-2.37-.86-4.39-3.75-4.9v-.06c1.64-.33 4.12-1.46 4.12-4.72 0-4.85-4.23-5.31-7.47-5.31h-4.21zm24.63-17.35h.07l2.71 9.39h-5.5zm-7.77 17.35h2.7l1.76-6.02h6.63l1.76 6.02h3.18l-6.45-20.26h-3.17zm21.86-20.25h3.41l7.63 16.04h.04V113.4h2.55v20.26h-3.19l-7.86-16.5h-.05v16.5h-2.54V113.4Zm24.44 1.93h-4.66v-1.94h12.37v1.94h-4.65v18.32h-3.06zm13.85-1.93h10.16v1.94h-7.08v6.81h6.68v1.94h-6.68v7.46h7.31v2.11h-10.38V113.4Zm17.35 0h10.15v1.94h-7.08v6.81h6.69v1.94h-6.69v7.46h7.29v2.11h-10.37V113.4Zm27.33 0h9.82v1.94h-6.75v6.81h6.39v1.94h-6.39v9.58h-3.07v-20.26Zm29.74 13.05c0 3.71-.6 7.53-6.53 7.53s-6.53-3.82-6.53-7.53v-13.06h3.08v13.06c0 3.24.21 5.76 3.46 5.76s3.45-2.52 3.45-5.76v-13.06h3.08v13.06Zm8.69-13.05h3.4l7.65 16.04h.06V113.4h2.53v20.26h-3.17l-7.86-16.5h-.06v16.5h-2.54V113.4Zm25.6 1.93h1.26c3.22 0 5.67.85 5.67 7.99 0 5.43-.92 8.39-5.67 8.39h-1.26zm-3.06 18.32h4.32c5.3 0 8.73-1.9 8.73-10.33s-3.46-9.92-8.73-9.92h-4.32v20.26Z" class="cls-1"/><path d="M116.53 35.09c0-16.26-12.65-29.44-28.25-29.44H67.09v58.86h18.1c.09-.78.14-1.56.14-2.35 0-2.58-.5-5.08-1.48-7.44-.11-.27-.23-.53-.35-.8h-4.64V16.25h7.36c10.07 0 18.24 8.43 18.24 18.84 0 5.94-2.66 11.23-6.82 14.68 1.56 3.84 2.37 7.89 2.41 12.08 9.73-4.65 16.48-14.89 16.48-26.76m4.72-29.43h11.77v58.86h-11.77zm61.21 0h-44.73v10.59h16.47v48.27h11.78V16.25h16.48z" style="fill:#007bc7"/><path d="M80.05 33.13v14.11c3.97 3.66 6.47 8.99 6.47 14.92 0 11.05-8.69 20.01-19.42 20.01s-19.42-8.96-19.42-20.01 8.07-19.35 18.24-19.98V30.4c-12.66.46-23.43 8.33-28.12 19.4L21.78 34.49 49.44 5.66H33.55L11.77 28.59V5.66H0v58.86h11.77V40.39l23.64 24.23c1.25 16.41 14.96 29.33 31.69 29.33 17.55 0 31.79-14.23 31.79-31.78 0-12.94-7.73-24.08-18.83-29.03Z" style="fill:#8fc31f"/><path d="M256.88 4.26h10.64v57.42h-10.64zm124.35 48.92V75.2H354.7v9.88h65.93V75.2h-28.56V53.18h23.24V6.38h-10.63v12.76h-34.04V6.38h-10.63v46.79h21.21Zm-10.58-24.25h34.04v14.35h-34.04zm-102.49 60.4v-9.89H227.1V57.43h-10.62v31.9zm64.22-57.23c5.41-3.05 8.5-7.77 8.5-14.02C340.88 6.35 330.02 0 313.22 0s-27.63 6.35-27.63 18.08c0 6.25 3.09 10.97 8.51 14.02v10.23h-14.35v9.78h66.98v-9.78h-14.34V32.1ZM313.22 9.52c10.15 0 16.7 3.01 16.7 8.56s-6.55 8.56-16.7 8.56-16.67-3.01-16.67-8.56 6.55-8.56 16.67-8.56m-8.49 26.02c2.62.41 5.46.62 8.49.62s5.89-.21 8.51-.62v6.79h-17zm-62.9 16.71 9.09-6.53s-17.98-18.71-19.57-40.4h-10.21c-1.59 21.7-19.57 40.4-19.57 40.4l9.1 6.53s9.55-9.94 15.57-25.72c6.02 15.77 15.58 25.72 15.58 25.72ZM578 89.33h55.3V55.3H578zm44.67-9.89h-34.04V65.19h34.04zM313.22 56.36c-17.74 0-29.22 6.53-29.22 18.61s11.48 18.61 29.22 18.61 29.25-6.53 29.25-18.61-11.48-18.61-29.25-18.61m0 27.82c-11.09 0-18.27-3.24-18.27-9.2s7.17-9.2 18.27-9.2 18.3 3.23 18.3 9.2-7.18 9.2-18.3 9.2m115.39-41.85h66.98v9.78h-66.98zm33.48 14.03c-17.75 0-29.23 6.53-29.23 18.61s11.48 18.61 29.23 18.61 29.24-6.53 29.24-18.61-11.48-18.61-29.24-18.61m0 27.82c-11.11 0-18.28-3.24-18.28-9.2s7.17-9.2 18.28-9.2 18.29 3.23 18.29 9.2-7.18 9.2-18.29 9.2M632.23 5.32h-53.17v9.89h42.55v5.31c0 6.61-.84 12.71-1.29 15.64h-48.16v9.78h66.99v-9.78h-8.67c.63-3.22 1.76-9.71 1.76-15.64V5.32ZM431.16 29.67l6.7 8.62s13.87-4.27 24.23-15.25c10.38 10.98 24.25 15.25 24.25 15.25l6.7-8.62c-14.76-4.55-22.19-12.5-24.09-14.78h20.47V5.32h-54.65v9.56h20.45c-1.89 2.28-9.32 10.24-24.07 14.78ZM552.47 4.26h10.65V90.4h-10.65zm-48.92 11.91h27.11c-1.63 26.84-27.67 46.87-31.03 49.34l8.2 7.2s35.09-23.19 35.09-66.33h-39.36v9.79Z" class="cls-1"/></g></svg>